<?xml version="1.0" standalone="no"?>
<!DOCTYPE svg PUBLIC "-//W3C//DTD SVG 20010904//EN"
 "http://www.w3.org/TR/2001/REC-SVG-20010904/DTD/svg10.dtd">
<svg version="1.0" xmlns="http://www.w3.org/2000/svg"
 width="7375.000000pt" height="8000.000000pt" viewBox="0 0 7375.000000 8000.000000"
 preserveAspectRatio="xMidYMid meet">

<g transform="translate(0.000000,8000.000000) scale(0.100000,-0.100000)"
fill="#000000" stroke="none">
<path d="M16462 79030 c-105 -38 -172 -111 -267 -295 -32 -60 -71 -125 -88
-143 -17 -17 -94 -64 -170 -104 -267 -137 -350 -229 -391 -434 -21 -106 -52
-343 -71 -539 -9 -88 -17 -178 -20 -200 -18 -170 -51 -719 -56 -920 -15 -601
15 -948 89 -1036 47 -56 76 -41 265 138 150 143 229 200 289 209 74 12 128
-68 248 -366 169 -420 205 -478 459 -731 102 -102 260 -252 351 -335 92 -82
249 -224 350 -316 219 -197 353 -333 348 -350 -3 -9 -38 -14 -124 -16 -268 -7
-913 96 -1243 198 -297 91 -411 205 -762 764 -92 147 -157 223 -174 204 -15
-17 -67 -157 -100 -272 -114 -398 -114 -837 1 -1226 99 -336 277 -658 528
-958 118 -141 387 -345 866 -658 640 -418 1716 -1048 2257 -1322 l151 -76 17
-81 c61 -282 205 -715 347 -1040 221 -505 471 -954 943 -1690 254 -396 327
-515 374 -615 34 -72 36 -81 40 -200 4 -157 -10 -260 -65 -475 -69 -273 -160
-536 -361 -1045 -175 -443 -189 -482 -194 -525 l-4 -30 92 2 c51 2 201 18 335
37 369 53 447 61 458 50 16 -16 -38 -195 -273 -914 -273 -831 -377 -1187 -377
-1287 l0 -46 43 5 c58 7 149 45 452 190 339 163 462 208 520 194 21 -5 25 -11
19 -29 -14 -47 -95 -196 -152 -282 -170 -257 -334 -426 -808 -832 -325 -279
-518 -457 -648 -599 -363 -396 -604 -775 -795 -1246 -142 -352 -260 -802 -326
-1240 -22 -146 -22 -148 26 -88 207 262 567 493 909 583 104 27 130 30 270 31
119 0 170 -4 220 -17 73 -20 210 -86 253 -120 l28 -23 -173 -108 c-535 -332
-890 -643 -1106 -966 -105 -158 -188 -360 -226 -546 -34 -164 -38 -421 -10
-647 l7 -57 106 108 c135 137 194 168 226 118 24 -36 28 -108 15 -251 -22
-245 -24 -347 -6 -408 18 -63 44 -87 92 -87 l33 0 -65 -102 c-142 -226 -244
-475 -263 -641 -14 -118 0 -217 50 -375 71 -223 77 -285 43 -423 -18 -75 -43
-128 -129 -283 -119 -213 -224 -467 -276 -669 -70 -272 -67 -596 7 -822 139
-427 484 -763 1066 -1039 197 -93 602 -246 616 -231 2 2 -1 32 -8 67 -21 112
-25 409 -6 527 15 98 43 211 51 211 2 0 33 -60 68 -134 263 -546 663 -1119
1074 -1537 l75 -76 -26 -159 c-14 -88 -30 -197 -36 -244 -6 -47 -13 -96 -15
-110 -2 -14 -18 -140 -35 -280 -141 -1158 -174 -1392 -261 -1840 -221 -1139
-549 -1791 -1024 -2032 -269 -137 -756 -264 -1205 -313 -80 -9 -163 -18 -185
-20 -22 -3 -163 -10 -314 -17 -213 -9 -338 -9 -570 0 -163 7 -321 15 -351 18
-251 25 -452 48 -600 69 -242 34 -325 40 -555 40 -356 0 -604 -33 -955 -126
-390 -104 -742 -250 -1485 -614 -143 -70 -316 -154 -385 -187 -951 -454 -1593
-594 -2318 -503 -99 13 -352 67 -467 101 -377 110 -637 232 -675 317 -32 70
-9 116 146 292 255 291 387 500 497 792 49 128 142 491 328 1283 33 140 69
291 79 335 32 132 124 529 205 880 41 182 80 348 85 370 6 22 34 144 62 270
51 222 52 235 52 375 -1 176 -15 245 -124 630 -102 357 -103 364 -140 575
-134 787 -510 1621 -962 2136 -35 39 -48 49 -48 34 0 -53 140 -553 280 -1000
192 -612 285 -965 335 -1272 23 -137 24 -134 -43 -163 -76 -32 -207 -164 -294
-296 -129 -194 -220 -396 -311 -684 -131 -415 -279 -765 -463 -1097 -449 -808
-961 -1224 -1473 -1200 -255 12 -470 105 -740 320 -161 129 -547 514 -677 677
-519 646 -814 1345 -919 2180 -100 791 -25 1615 260 2840 150 645 184 831 189
1023 l3 98 224 227 c124 125 270 274 325 332 108 115 254 286 254 298 0 10
-127 -2 -207 -18 -255 -53 -553 -229 -819 -483 -67 -64 -133 -116 -171 -136
-431 -228 -1057 -1402 -1397 -2622 -78 -279 -133 -540 -180 -850 -18 -121 -27
-237 -32 -414 -3 -110 -8 -206 -10 -214 -16 -50 -124 159 -203 391 -209 617
-322 1468 -291 2200 26 609 120 1133 303 1677 l71 213 95 112 c52 61 233 251
401 422 168 170 354 366 412 435 105 121 107 124 80 129 -113 22 -409 -74
-614 -199 -326 -199 -568 -448 -795 -819 -46 -76 -110 -163 -158 -215 -513
-563 -830 -1389 -960 -2502 -31 -267 -48 -660 -43 -1038 1 -180 1 -327 -2
-327 -14 1 -312 525 -411 722 -257 513 -433 1038 -474 1418 -4 36 -9 74 -11
85 -2 10 -7 71 -10 135 -7 114 -6 118 34 266 55 199 132 423 238 684 228 568
275 688 328 844 31 93 55 171 52 174 -7 7 -70 -36 -128 -87 -66 -58 -202 -241
-298 -400 -139 -231 -351 -667 -469 -964 -27 -69 -65 -146 -85 -172 -44 -57
-62 -91 -86 -161 -25 -71 -57 -237 -69 -354 -10 -98 -30 -504 -34 -694 l-2
-108 -139 168 c-152 183 -316 358 -371 395 -28 19 -41 42 -70 117 -72 188
-126 451 -145 702 -46 618 -46 618 -82 755 -11 44 -24 84 -28 88 -10 12 -67
-294 -80 -433 -6 -63 -15 -128 -20 -145 -12 -42 -12 -433 0 -440 6 -3 10 -26
10 -50 0 -112 51 -412 105 -615 27 -102 38 -160 55 -309 22 -192 142 -603 285
-976 103 -269 137 -350 302 -714 143 -317 453 -888 634 -1166 60 -93 91 -154
137 -275 392 -1020 1031 -2123 1845 -3185 72 -93 153 -210 180 -260 153 -278
406 -610 777 -1019 502 -553 704 -798 844 -1026 148 -239 251 -376 378 -501
145 -143 259 -205 548 -300 240 -79 311 -108 450 -180 224 -118 392 -247 709
-548 871 -824 1638 -1385 2506 -1832 851 -438 1826 -735 2800 -854 72 -8 144
-18 161 -20 17 -2 102 -11 190 -19 150 -14 197 -18 369 -31 490 -37 1701 -34
2568 6 141 7 260 10 263 7 3 -3 -29 -52 -72 -108 -333 -442 -866 -782 -1632
-1041 l-177 -59 75 5 c649 50 1442 206 2010 394 287 95 411 146 675 276 345
170 636 372 831 577 64 68 76 76 120 83 68 10 407 96 549 140 438 134 969 373
1475 663 327 187 557 330 1020 636 112 74 206 133 208 132 8 -9 -328 -960
-424 -1200 -24 -60 -42 -111 -41 -113 6 -6 272 271 363 377 49 58 183 224 299
370 115 146 263 330 329 410 151 182 467 500 610 613 60 48 111 86 112 84 4
-4 18 -182 16 -210 -2 -33 9 -32 93 11 167 83 275 172 595 487 146 143 288
279 315 301 79 64 187 134 198 127 6 -4 8 -58 4 -142 -12 -270 -115 -523 -296
-722 -34 -38 -59 -69 -56 -69 21 0 154 81 245 148 271 202 585 536 836 890 84
118 222 345 259 425 23 51 27 54 146 115 510 265 994 636 1505 1154 115 117
260 270 322 340 l111 127 144 -152 c327 -345 539 -606 742 -912 258 -388 406
-721 489 -1095 58 -261 45 -620 -32 -880 -154 -520 -554 -1003 -1282 -1546
-311 -232 -800 -567 -925 -633 -269 -142 -459 -261 -975 -607 -590 -395 -804
-525 -1115 -675 -308 -148 -352 -165 -1050 -399 -796 -267 -1130 -397 -1540
-599 -318 -157 -552 -300 -735 -449 -59 -49 -230 -213 -230 -222 0 -3 91 -6
203 -6 177 -2 355 -13 467 -30 127 -19 231 -37 338 -61 112 -24 125 -29 134
-52 9 -24 6 -97 -5 -107 -3 -3 -63 -18 -134 -34 -766 -168 -1453 -469 -2428
-1063 -210 -128 -191 -115 -174 -121 64 -19 122 -46 220 -103 63 -36 149 -85
193 -108 l79 -42 -84 -46 c-46 -24 -199 -104 -339 -177 -1360 -708 -2018
-1139 -2556 -1675 -180 -179 -303 -324 -455 -535 -67 -93 -161 -251 -239 -401
l-85 -167 -90 -69 c-363 -278 -469 -360 -690 -537 -803 -642 -1325 -1105
-1961 -1741 -465 -465 -745 -771 -1075 -1175 -1014 -1241 -1660 -2486 -1943
-3740 -53 -234 -101 -514 -121 -712 -9 -83 -12 -92 -92 -293 -96 -242 -153
-411 -204 -611 -176 -691 -132 -1272 138 -1785 30 -58 63 -116 73 -129 l17
-23 50 74 c28 41 86 114 129 163 44 49 89 102 102 117 24 30 42 37 42 18 0
-40 158 -345 261 -504 46 -72 62 -106 74 -165 195 -932 698 -1916 1319 -2581
80 -86 85 -87 33 -11 -183 270 -193 667 -29 1104 33 86 78 193 88 206 4 5 186
-55 349 -115 393 -145 942 -414 1560 -762 1011 -571 1626 -850 2250 -1021 120
-32 417 -100 441 -100 9 0 -4 36 -78 215 -117 282 -182 426 -335 737 -81 164
-145 299 -142 301 2 2 42 0 89 -4 164 -16 205 -20 419 -39 253 -22 621 -58
671 -65 19 -2 118 -14 220 -25 102 -12 196 -23 210 -25 14 -2 81 -11 150 -20
439 -56 915 -154 1218 -249 631 -199 1001 -495 1166 -931 131 -350 145 -826
40 -1450 -33 -199 -103 -521 -170 -784 -62 -241 -58 -234 -196 -366 -141 -137
-259 -226 -588 -445 -498 -332 -733 -511 -938 -713 -221 -219 -341 -411 -407
-657 -29 -109 -48 -260 -43 -348 l3 -64 70 37 c97 52 186 121 357 278 236 217
361 303 522 358 120 42 120 43 111 -38 -27 -271 -150 -521 -433 -883 -58 -74
-153 -195 -211 -269 -204 -261 -324 -467 -376 -646 -34 -120 -35 -117 28 -110
79 10 147 30 317 95 167 64 279 95 294 80 11 -11 -10 -154 -36 -239 -11 -36
-38 -102 -61 -146 -95 -190 -199 -317 -547 -670 -300 -304 -418 -431 -501
-540 -51 -67 -154 -234 -147 -240 9 -9 148 18 227 44 129 44 220 88 508 247
168 93 322 170 429 214 93 38 170 67 172 65 5 -4 -151 -472 -238 -715 -28 -80
-55 -156 -60 -170 -43 -135 -300 -782 -381 -958 -16 -35 -29 -65 -29 -67 0 -2
-40 -88 -88 -192 -246 -524 -496 -918 -727 -1148 -168 -168 -523 -452 -755
-606 -697 -462 -1627 -812 -2830 -1065 -316 -66 -502 -119 -742 -210 -264
-101 -546 -257 -741 -411 -103 -81 -272 -254 -345 -353 l-63 -85 -139 -12
c-507 -42 -886 -248 -1636 -889 -410 -351 -660 -531 -939 -679 -605 -320 -897
-513 -1158 -765 -201 -193 -354 -399 -501 -674 -20 -37 -35 -70 -33 -73 12
-11 264 68 722 227 383 133 599 202 775 249 155 41 393 88 512 100 112 13 368
15 368 3 0 -10 -168 -83 -470 -203 -655 -260 -925 -441 -955 -642 -4 -26 -5
-47 -3 -47 3 0 47 -9 99 -19 137 -29 366 -67 509 -86 69 -8 139 -17 155 -20
17 -2 102 -11 190 -20 88 -8 201 -20 250 -25 50 -5 194 -17 320 -25 127 -9
256 -18 289 -20 83 -7 616 -33 841 -41 105 -3 215 -7 245 -8 30 -2 226 -6 435
-11 209 -4 385 -12 391 -16 14 -11 1414 -11 1414 0 0 4 60 11 133 15 72 3 148
8 167 11 19 2 105 11 190 20 676 68 1487 232 2110 425 166 52 186 56 850 169
297 50 478 76 670 95 377 38 881 34 1225 -10 172 -22 513 -29 675 -14 362 33
711 150 1004 334 401 254 759 680 1031 1231 192 389 307 709 510 1415 109 380
136 454 240 655 164 315 284 594 368 850 91 278 123 429 171 815 54 429 74
522 168 810 101 309 285 810 298 810 11 0 127 -200 169 -292 46 -98 73 -189
132 -433 66 -275 134 -431 211 -483 52 -34 123 -28 176 15 150 121 242 345
228 558 -6 98 -9 114 -32 225 -21 99 -62 239 -119 402 -133 381 -157 483 -157
658 0 149 27 269 90 401 48 101 150 259 166 259 30 0 120 -54 206 -124 89 -71
144 -105 198 -121 22 -6 22 -5 22 77 0 152 19 572 30 673 21 189 50 339 96
494 l25 83 96 -160 c172 -289 354 -507 498 -597 79 -49 121 -65 112 -44 -95
222 -143 367 -176 544 -29 151 -30 158 -42 333 -15 210 -3 439 41 792 19 154
66 507 75 565 2 17 7 62 11 100 3 39 12 84 19 101 36 88 598 901 979 1414 258
348 803 1045 916 1170 l31 35 -6 -110 c-28 -523 -184 -1031 -462 -1502 -30
-52 -53 -96 -51 -99 10 -9 119 31 208 77 352 182 775 627 1099 1157 259 423
453 892 581 1402 56 224 111 536 126 719 l7 79 109 116 c60 64 113 116 118
116 5 0 47 -78 93 -173 47 -94 125 -255 175 -357 117 -240 190 -350 316 -476
87 -86 114 -107 196 -147 108 -54 133 -58 126 -24 -3 12 -8 58 -12 102 -3 44
-8 96 -10 115 -22 236 -29 411 -29 795 0 405 5 529 31 705 23 156 38 242 61
352 l27 128 371 367 c203 203 456 451 560 553 105 101 231 225 282 274 l92 90
37 -80 c20 -43 58 -128 84 -189 77 -180 124 -275 137 -275 17 0 171 174 260
294 176 236 295 492 357 767 32 145 56 345 56 476 l0 101 45 77 c55 93 145
272 170 338 10 26 21 47 25 47 16 0 184 -188 259 -288 206 -276 346 -544 620
-1187 158 -371 298 -662 311 -649 13 13 66 178 85 264 22 105 31 387 16 535
-34 331 -136 689 -366 1285 -187 486 -351 758 -601 1000 -147 143 -318 266
-509 370 -44 24 -103 65 -132 90 -236 214 -610 411 -1053 557 -260 85 -536
155 -920 233 -862 173 -1450 399 -1893 727 -141 105 -346 312 -440 447 -82
116 -189 323 -231 446 -69 206 -103 407 -87 523 51 363 362 619 1026 845 343
117 693 200 1670 397 724 146 1080 235 1390 350 55 20 208 89 340 152 283 136
626 290 925 415 217 91 884 358 894 358 3 0 70 -129 149 -287 79 -159 171
-340 204 -403 58 -108 63 -123 82 -245 110 -674 370 -1520 733 -2385 132 -312
219 -501 378 -815 311 -616 594 -1067 939 -1500 109 -136 430 -464 539 -549
213 -167 463 -298 632 -331 31 -6 28 -2 -29 32 -285 172 -450 638 -451 1276 0
86 3 157 8 157 4 -1 34 -47 66 -103 195 -337 493 -759 684 -967 l50 -55 -5 81
c-11 164 6 188 196 284 75 38 153 79 173 91 l37 22 44 -36 c57 -47 249 -251
368 -392 156 -186 319 -412 604 -840 303 -455 427 -624 591 -807 359 -398 803
-677 1389 -874 71 -24 131 -44 134 -44 3 0 -9 15 -27 33 -17 17 -41 55 -54 82
-20 44 -23 65 -23 185 0 91 6 159 18 210 30 133 103 409 109 415 26 26 511
-282 1208 -765 1515 -1051 2364 -1482 3123 -1585 66 -9 121 -14 124 -11 13 12
-82 120 -150 170 -40 30 -133 89 -207 131 -168 96 -229 141 -268 200 -33 50
-56 132 -50 180 3 30 3 30 71 31 171 3 423 -72 832 -249 230 -99 315 -134 439
-176 l114 -40 7 75 c4 41 6 144 3 229 -3 135 -2 155 12 155 8 0 83 -9 165 -20
203 -27 685 -77 870 -89 141 -9 235 -15 485 -26 135 -7 776 -7 900 0 259 13
315 16 440 26 300 23 763 88 1020 145 372 82 737 202 972 320 48 24 90 44 92
44 3 0 96 -100 207 -222 111 -123 326 -360 478 -527 152 -168 352 -388 445
-490 191 -210 200 -225 329 -552 160 -404 190 -567 202 -1099 6 -271 17 -422
40 -530 16 -77 53 -180 64 -180 10 0 63 115 91 195 12 33 50 155 86 270 77
249 122 372 168 463 63 122 44 130 207 -79 79 -101 171 -212 204 -247 54 -58
165 -152 179 -152 3 0 6 19 7 43 3 108 -4 112 225 -154 l211 -245 16 -79 c15
-74 37 -231 52 -365 3 -30 8 -75 10 -100 3 -25 12 -142 20 -260 9 -118 18
-233 20 -255 2 -22 6 -69 10 -105 50 -543 144 -882 318 -1140 64 -95 202 -232
292 -291 68 -45 195 -113 195 -105 0 2 -16 38 -35 79 -68 150 -121 323 -144
472 -35 224 -33 406 9 660 18 109 84 403 92 411 13 12 545 -753 736 -1058 381
-609 716 -1445 866 -2163 75 -359 126 -820 126 -1143 0 -121 -22 -454 -41
-602 -71 -586 -272 -1159 -564 -1610 -34 -52 -279 -385 -546 -740 -614 -817
-819 -1099 -1056 -1455 -181 -272 -216 -335 -288 -518 -379 -963 -454 -1672
-244 -2291 41 -120 145 -336 221 -461 34 -55 129 -201 211 -325 87 -132 177
-282 217 -362 62 -126 69 -136 83 -120 9 9 76 109 151 222 185 282 253 375
309 425 46 42 135 100 142 93 2 -2 -3 -30 -11 -63 -50 -207 -13 -472 88 -637
l29 -47 52 16 c525 153 1361 584 2484 1281 476 295 957 609 1053 686 111 90
289 273 373 384 228 304 339 559 492 1139 202 759 270 966 439 1333 189 408
477 846 812 1234 71 82 166 192 212 245 293 340 525 724 670 1111 87 233 141
443 212 831 40 218 75 369 125 536 76 256 71 558 -15 813 -37 111 -135 302
-219 426 -81 121 -183 251 -391 499 -274 327 -328 419 -395 686 -141 558 -297
900 -529 1159 -42 47 -108 128 -147 180 -86 114 -190 236 -359 425 -414 462
-551 680 -624 999 -23 98 -39 306 -23 306 4 0 80 -36 169 -81 275 -138 428
-193 613 -223 91 -14 276 -19 307 -7 13 5 -18 36 -134 136 -84 71 -243 212
-353 311 -617 557 -891 979 -1130 1744 -20 63 -74 248 -121 410 -97 335 -183
599 -245 745 -36 85 -44 118 -54 220 -16 154 -39 545 -32 551 3 3 43 -6 89
-21 94 -30 280 -76 285 -71 2 2 6 68 9 147 6 123 -6 392 -21 494 -2 17 -12 82
-20 145 -63 446 -256 1053 -540 1695 l-66 150 -44 260 c-25 143 -56 321 -70
395 -36 184 -39 210 -29 210 29 0 274 -164 552 -369 134 -98 289 -198 297
-190 7 7 -44 234 -81 361 -105 363 -322 858 -551 1261 -265 467 -526 827 -843
1164 -77 81 -144 153 -150 158 -6 6 -52 81 -103 168 -176 301 -321 492 -542
713 -369 369 -776 589 -1310 709 -130 29 -328 60 -451 70 -44 4 -83 10 -89 14
-5 3 -541 9 -1190 12 -1178 7 -1355 12 -1790 50 -309 26 -691 85 -967 149
-1047 242 -1949 774 -2834 1671 -263 268 -396 452 -559 779 -220 439 -376
1013 -450 1655 -9 77 -18 151 -20 164 -4 25 -26 296 -47 596 -14 205 -17 1234
-6 2805 3 536 2 1040 -2 1120 -24 404 -32 522 -40 595 -5 44 -17 145 -25 225
-28 259 -112 702 -165 872 l-18 60 26 -7 c115 -28 432 -164 617 -264 337 -182
700 -489 1063 -898 276 -312 656 -820 844 -1128 143 -235 359 -650 481 -927
54 -124 221 -495 267 -593 63 -138 178 -362 245 -480 382 -672 871 -1070 1635
-1330 88 -30 160 -50 160 -44 0 5 -25 65 -56 132 -175 381 -352 807 -449 1082
-122 344 -163 600 -109 682 26 41 77 57 138 42 207 -48 519 -279 1440 -1063
1387 -1183 2108 -1710 2821 -2062 148 -73 386 -176 392 -170 1 1 -11 56 -27
122 -182 733 -215 1214 -94 1399 120 186 376 118 832 -221 163 -122 400 -321
687 -579 533 -478 772 -684 954 -825 465 -360 718 -437 828 -252 43 73 55 155
51 340 -1 83 0 152 3 152 10 0 90 -97 151 -181 144 -201 218 -419 218 -644 0
-120 -13 -214 -60 -454 -22 -110 -47 -260 -56 -333 -41 -345 57 -657 301 -963
75 -94 267 -288 394 -398 296 -255 763 -564 1306 -865 268 -148 685 -361 685
-351 0 5 -33 93 -74 197 -243 617 -361 1120 -343 1462 10 187 49 295 132 368
232 204 700 -165 1102 -868 383 -669 686 -1566 762 -2260 6 -52 16 -135 22
-185 6 -50 15 -392 19 -775 9 -667 12 -743 45 -933 109 -634 467 -1151 1225
-1769 145 -118 402 -309 408 -304 2 3 -1 63 -7 133 -32 363 -40 745 -20 949
24 259 99 425 222 497 61 36 161 63 338 92 86 14 193 36 238 49 l81 24 -5 -22
c-54 -236 -80 -356 -125 -576 -125 -617 -191 -1069 -244 -1685 -3 -27 -10
-184 -17 -348 -10 -238 -11 -350 -1 -560 7 -144 14 -273 16 -287 2 -14 6 -56
10 -95 39 -408 152 -873 288 -1195 218 -513 521 -926 983 -1339 291 -260 540
-444 1290 -951 337 -228 584 -399 664 -459 27 -20 33 -22 28 -9 -21 55 -134
419 -176 568 -178 623 -337 1430 -426 2155 -8 72 -18 144 -20 162 -3 17 -14
125 -25 240 -11 114 -22 224 -24 243 -3 19 -12 132 -20 250 -9 118 -21 276
-26 350 -29 391 -50 1138 -50 1788 l0 473 38 -31 c607 -516 1267 -789 2130
-884 37 -4 42 -3 38 12 -41 135 -104 515 -130 787 -14 139 -17 433 -6 630 36
686 21 936 -80 1350 -37 150 -152 512 -179 563 -6 12 -9 22 -5 22 4 0 89 -27
189 -60 205 -66 337 -101 472 -125 294 -50 614 -37 996 41 121 24 435 102 450
111 5 3 -78 50 -185 105 -1001 516 -1572 1032 -1868 1687 -130 288 -203 535
-359 1221 -34 146 -70 301 -80 345 -11 44 -18 81 -17 82 6 7 182 -48 506 -157
387 -130 599 -188 611 -168 10 15 36 133 48 213 73 477 -74 1069 -442 1785
-174 339 -319 583 -733 1235 -168 267 -174 280 -174 442 0 190 83 292 238 293
35 0 84 -5 110 -11 73 -17 238 -101 337 -171 120 -84 333 -297 433 -433 67
-90 200 -306 215 -349 8 -23 15 2 33 119 25 162 25 487 1 633 -39 237 -102
438 -207 660 -167 350 -387 649 -735 997 -437 438 -881 766 -1715 1268 -241
145 -310 191 -310 207 0 25 133 2 489 -87 124 -30 231 -57 238 -60 24 -9 13
12 -51 97 -325 433 -914 818 -1730 1131 -371 143 -771 269 -1391 439 -754 206
-922 259 -1081 335 -96 46 -164 107 -164 146 0 62 86 133 249 205 178 77 541
189 921 284 91 22 174 44 184 48 16 7 6 18 -65 69 -676 485 -1653 944 -2764
1298 -1041 331 -2409 638 -3850 865 -375 59 -483 75 -820 125 -336 49 -548 79
-965 135 -80 11 -210 29 -290 40 -150 20 -856 111 -1015 130 -49 6 -103 13
-120 16 -16 2 -118 15 -225 29 -107 13 -285 36 -395 50 -110 14 -254 32 -320
41 -66 8 -167 21 -225 29 -58 8 -193 26 -300 41 -113 15 -347 59 -555 104
-334 73 -811 175 -1565 336 -1931 412 -2260 485 -2590 581 -910 262 -1562 596
-2196 1124 -213 177 -265 227 -829 793 -611 614 -795 782 -1140 1041 -641 481
-1366 843 -2305 1151 -107 35 -212 69 -234 75 -21 6 -36 12 -33 15 2 2 71 16
153 30 82 14 155 29 163 34 9 5 -20 28 -90 75 -235 154 -476 351 -899 739
-247 226 -247 226 -387 348 -387 339 -737 573 -1058 708 -125 53 -305 112
-410 135 -125 27 -129 30 -66 49 70 21 213 21 322 0 46 -9 165 -36 264 -60
172 -42 400 -82 410 -72 9 9 -164 429 -250 605 -241 497 -486 847 -844 1204
-218 217 -361 336 -806 671 -348 262 -501 388 -676 556 l-126 122 -36 102
c-19 57 -34 104 -32 106 2 2 108 -48 237 -111 128 -64 262 -124 298 -136 76
-23 180 -45 186 -38 3 2 -46 98 -107 213 -263 494 -394 782 -477 1049 -43 138
-80 289 -88 359 -7 54 -6 58 12 53 10 -3 63 -17 118 -32 159 -42 311 -105 686
-283 268 -127 485 -207 635 -235 127 -24 284 -39 337 -32 l48 7 -127 90 c-426
302 -544 389 -763 564 -692 552 -1158 1128 -1403 1735 -86 211 -135 389 -171
609 -21 130 -21 144 -10 370 11 204 25 385 39 510 33 285 59 462 71 481 3 5
11 9 19 9 21 0 251 95 363 149 168 83 345 187 538 316 398 267 766 563 1548
1245 145 127 411 352 519 439 93 75 75 75 312 -4 381 -127 792 -343 1290 -677
126 -84 155 -102 105 -62 -103 81 -237 240 -405 479 -90 129 -178 239 -259
324 l-81 83 100 -7 c196 -14 291 -36 805 -189 85 -25 158 -45 163 -43 15 5
-97 130 -190 212 -47 42 -183 155 -304 251 -120 96 -219 178 -219 182 0 5 15
7 33 5 454 -37 683 -86 1557 -331 646 -181 892 -212 973 -122 34 38 35 80 3
160 -14 33 -24 60 -23 60 11 0 186 -61 277 -97 269 -106 520 -252 760 -443
531 -421 1080 -680 1936 -914 456 -125 894 -210 2179 -422 513 -84 883 -153
1178 -219 174 -38 202 -47 240 -77 46 -36 259 -218 267 -228 13 -16 267 -235
351 -302 52 -42 135 -103 186 -137 92 -62 277 -161 301 -161 17 0 16 100 -4
250 -8 67 -13 124 -10 127 9 9 225 -138 323 -220 216 -180 351 -411 370 -634
8 -94 19 -94 155 -6 60 39 148 131 148 154 0 26 23 2 49 -49 48 -94 64 -166
64 -277 -1 -226 -102 -486 -314 -804 l-90 -133 78 7 c42 4 87 9 98 10 11 2 54
9 95 15 307 47 588 186 783 388 76 80 67 83 115 -39 178 -450 -8 -733 -573
-869 -344 -84 -730 -114 -1625 -130 -545 -9 -739 -14 -945 -26 -114 -6 -442
-33 -475 -38 -14 -3 -77 -12 -140 -21 -150 -21 -316 -58 -432 -97 -84 -28
-586 -235 -898 -371 -560 -243 -1311 -607 -1625 -787 -121 -70 -182 -98 -250
-117 -248 -69 -456 -189 -755 -435 -171 -141 -470 -441 -561 -564 -236 -316
-397 -665 -475 -1033 -28 -129 -43 -393 -29 -516 l7 -70 30 35 c88 103 283
394 491 732 261 424 425 652 610 845 l78 81 33 -13 c70 -29 210 -48 371 -49
347 -2 653 49 1075 180 386 121 924 233 1330 279 80 9 183 21 230 26 134 17
685 23 850 10 611 -47 1063 -211 1354 -491 194 -186 298 -373 386 -700 78
-290 106 -518 97 -785 -8 -236 -46 -435 -123 -643 -218 -591 -725 -1113 -1514
-1559 -142 -80 -479 -250 -632 -319 -57 -25 -121 -54 -143 -64 -164 -74 -471
-197 -970 -390 -425 -164 -643 -262 -756 -341 l-56 -40 -189 10 c-104 6 -245
15 -314 21 -69 5 -172 12 -230 16 -150 10 -710 20 -710 13 0 -11 152 -92 262
-139 321 -136 755 -228 1198 -256 58 -3 137 -15 175 -25 121 -32 254 -49 435
-55 151 -6 472 6 595 21 22 3 105 12 185 20 658 72 1520 268 2205 503 509 173
885 347 1188 549 146 96 163 99 154 25 -23 -194 -318 -625 -662 -967 -377
-374 -799 -671 -1335 -939 -347 -173 -676 -300 -1080 -417 l-185 -54 -265 0
c-223 0 -555 16 -1020 49 -163 12 -580 18 -580 9 0 -14 150 -95 262 -142 381
-157 843 -246 1348 -258 221 -5 476 5 575 24 17 3 188 7 380 8 302 3 548 14
659 30 17 3 85 12 151 20 959 128 1996 574 2915 1253 74 55 136 99 138 97 1
-1 -7 -56 -18 -121 -142 -804 -433 -1365 -892 -1715 -86 -66 -178 -103 -451
-183 -233 -68 -383 -106 -827 -206 -360 -82 -757 -184 -840 -217 -45 -17 284
-70 490 -79 139 -5 442 6 517 20 10 2 47 7 83 11 259 29 630 118 899 215 115
42 150 51 226 54 208 11 428 103 808 339 658 409 1149 862 1556 1435 364 513
653 1165 811 1827 36 150 87 413 105 535 9 63 18 126 20 140 9 55 25 202 35
320 6 69 13 145 16 170 3 25 7 203 10 395 5 320 8 359 29 460 34 153 49 350
41 530 -6 140 -21 330 -31 400 -3 16 -14 109 -25 205 -11 96 -22 191 -25 210
-29 211 -41 511 -26 655 22 216 92 500 212 859 44 131 85 249 90 263 l10 26
22 -20 c24 -22 113 -83 120 -83 2 0 7 28 11 63 17 156 7 159 110 -31 126 -233
108 -215 157 -163 110 122 165 350 139 586 -21 199 -51 336 -175 805 -55 210
-85 371 -92 496 -3 63 -3 114 2 114 27 0 145 -90 264 -203 142 -135 220 -191
280 -203 l34 -7 -6 124 c-6 136 -27 236 -83 394 -157 439 -537 949 -903 1211
l-68 49 -68 160 c-87 205 -305 651 -424 870 -537 978 -1265 1939 -2156 2844
-393 399 -755 737 -1113 1039 -61 52 -111 97 -109 99 3 2 151 -61 282 -122
573 -263 799 -347 1065 -395 138 -24 350 -38 350 -23 0 14 -173 173 -320 294
-575 475 -1199 852 -2555 1544 -159 82 -292 150 -294 152 -12 9 19 17 146 34
151 21 173 26 173 39 0 18 -119 102 -210 149 -165 85 -352 137 -705 196 -195
32 -449 85 -442 91 3 3 181 30 252 38 60 7 609 34 715 35 118 2 427 21 515 31
44 6 86 10 95 10 25 1 -15 26 -131 85 -423 214 -922 355 -1499 424 -375 45
-682 58 -1260 50 l-445 -5 -160 52 c-913 300 -1608 465 -3495 828 -1245 240
-1925 392 -2546 569 -168 48 -215 66 -395 155 -396 195 -760 331 -1639 613
-124 39 -227 73 -229 75 -8 8 24 57 63 95 57 58 153 108 306 160 l135 47 -40
10 c-242 66 -649 144 -920 177 -71 8 -146 17 -165 20 -54 7 -235 23 -340 30
-156 11 -167 12 -372 20 -109 5 -198 9 -198 10 0 10 60 226 65 234 13 22 -335
13 -738 -19 l-128 -10 -95 55 c-52 30 -142 80 -199 111 -58 31 -105 57 -105
59 0 2 40 28 88 58 231 143 465 235 977 382 342 98 490 147 474 155 -8 4 -84
15 -169 24 -85 10 -166 19 -179 21 -23 4 -266 24 -541 44 -186 14 -299 16
-805 16 -553 0 -591 -1 -939 -26 l-258 -18 -89 45 c-71 35 -107 62 -174 129
-50 49 -129 113 -192 155 -101 66 -398 222 -578 303 -454 205 -676 315 -763
380 l-33 25 43 16 c24 9 125 41 226 71 100 30 197 61 215 68 l32 14 -60 38
c-70 46 -226 113 -421 183 -244 88 -357 132 -449 178 -104 51 -191 112 -179
124 16 16 238 68 336 79 123 14 237 14 369 0 99 -10 172 -23 567 -104 96 -19
179 -35 185 -35 7 0 -29 41 -78 91 -443 449 -1206 808 -2261 1064 l-151 36
-42 132 c-160 507 -213 987 -161 1444 30 267 65 355 194 491 39 41 136 126
216 188 80 62 174 141 210 174 81 75 205 160 480 330 488 301 690 459 776 608
22 38 28 60 28 113 1 57 -3 70 -27 103 -41 53 -107 99 -222 156 -227 111 -447
156 -830 167 -304 9 -528 -7 -1380 -97 -281 -30 -279 -29 -430 -40 -281 -20
-505 -9 -663 31 -226 57 -711 363 -1287 813 -269 209 -430 341 -1105 901 -635
527 -835 691 -1075 881 -844 666 -1420 1014 -1845 1116 -248 59 -637 74 -950
37 -315 -37 -542 -85 -1105 -235 -608 -162 -825 -204 -1066 -204 -182 0 -272
20 -414 90 -66 33 -201 110 -300 173 -186 116 -202 127 -520 335 -1159 761
-1847 1167 -2710 1602 -963 485 -1842 837 -2740 1095 -384 111 -445 120 -543
85z"/>
</g>
</svg>
